<?xml version="1.0"?>
<svg xmlns="http://www.w3.org/2000/svg" viewBox="0 0 24 24">
    <rect x="0" y="0" width="24" height="24" fill="#3f51b5"/>
    <path fill="#fff" d="M 12 0 C 10.694 0 9.583875 0.835 9.171875 2 L 5 2 C 3.911 2 3 2.911 3 4 L 3 20 C 3 21.089 3.911 22 5 22 L 19 22 C 20.089 22 21 21.089 21 20 L 21 4 C 21 2.911 20.089 2 19 2 L 14.828125 2 C 14.416125 0.835 13.306 4.6351811e-17 12 0 z M 12 2 C 12.552 2 13 2.448 13 3 C 13 3.552 12.552 4 12 4 C 11.448 4 11 3.552 11 3 C 11 2.448 11.448 2 12 2 z M 5 4 L 7 4 L 7 7 L 17 7 L 17 4 L 19 4 L 19 20 L 5 20 L 5 4 z M 16.888672 9.2324219 L 15.121094 11 L 14.060547 9.9394531 L 13 11 L 15.121094 13.121094 L 17.949219 10.292969 L 16.888672 9.2324219 z M 7 10 L 7 12 L 12 12 L 12 10 L 7 10 z M 16.888672 14.232422 L 15.121094 16 L 14.060547 14.939453 L 13 16 L 15.121094 18.121094 L 17.949219 15.292969 L 16.888672 14.232422 z M 7 15 L 7 17 L 12 17 L 12 15 L 7 15 z" clip-rule="evenodd" fill-rule="evenodd"/>
</svg>
