<?xml version="1.0" standalone="no"?>
<!DOCTYPE svg PUBLIC "-//W3C//DTD SVG 20010904//EN"
 "http://www.w3.org/TR/2001/REC-SVG-20010904/DTD/svg10.dtd">
<svg version="1.0" xmlns="http://www.w3.org/2000/svg"
 width="700.000000pt" height="700.000000pt" viewBox="0 0 700.000000 700.000000"
 preserveAspectRatio="xMidYMid meet">
<metadata>
Created by potrace 1.11, written by Peter Selinger 2001-2013
</metadata>
<g transform="translate(0.000000,700.000000) scale(0.100000,-0.100000)"
fill="#000000" stroke="none">
<path d="M3319 6980 c-270 -58 -497 -240 -614 -493 l-33 -71 -658 -1 c-658 -1
-659 -1 -724 -24 -198 -69 -341 -220 -396 -416 -15 -55 -17 -249 -18 -2450 -2
-1988 0 -2403 12 -2465 40 -218 211 -398 437 -461 42 -12 388 -14 2175 -14
2061 0 2127 1 2193 19 37 11 70 23 73 28 3 4 12 8 19 8 26 0 136 83 190 142
52 58 117 176 129 233 4 17 9 41 12 55 4 14 7 1098 8 2409 1 1885 -2 2399 -12
2459 -34 203 -191 380 -402 453 -65 22 -69 22 -723 24 l-658 2 -41 84 c-121
249 -349 426 -623 484 -75 16 -261 13 -346 -5z m300 -591 c132 -56 200 -212
156 -354 -53 -167 -257 -249 -414 -166 -44 24 -102 85 -124 130 -31 67 -31
189 1 251 75 143 236 202 381 139z m-1579 -558 c3 -1 4 -197 3 -436 l-1 -435
56 -1 c71 0 2844 0 2854 1 3 0 6 194 6 431 0 236 3 433 6 436 9 9 567 10 572
1 4 -6 5 -1596 4 -4253 l0 -410 -2040 0 -2040 0 0 75 c-3 610 0 4583 4 4588 3
5 547 8 576 3z"/>
<path d="M4668 4050 l-258 -258 -154 155 -154 155 -155 -155 -155 -155 309
-309 310 -309 407 407 c223 225 408 412 409 416 2 5 -66 76 -149 160 l-153
152 -257 -259z"/>
<path d="M2050 4080 c-5 -3 -8 -134 -9 -293 l0 -287 730 0 729 0 -2 292 -3
292 -718 1 c-396 0 -723 -2 -727 -5z"/>
<path d="M4670 2595 c-140 -140 -258 -254 -262 -253 -4 2 -75 70 -158 152
l-150 150 -155 -155 -154 -155 310 -310 309 -309 412 413 413 412 -155 155
-155 155 -255 -255z"/>
<path d="M2044 2615 c-2 -5 -2 -136 -1 -290 l2 -280 728 -2 727 -1 -2 291 -3
292 -724 0 c-475 0 -725 -3 -727 -10z"/>
</g>
</svg>
